# xmcd
#
# Track frame offsets: 
#        150
#        27023
#        55693
#        81510
#        102267
#        128201
#
# Disc length: 1984 seconds
#
# Revision: 0
# Processed by: cddbd v1.5.2PL0 Copyright (c) Steve Scherf et al.
# Submitted via: ExactAudioCopy v0.95a5
#
DISCID=4507be06
DTITLE=Krzysztof Gluch - Oscillate cd2
DYEAR=2016
DGENRE=Blues
TTITLE0=You know what I want
TTITLE1=Geen watch
TTITLE2=Look Out
TTITLE3=Somebody's Heart
TTITLE4=All I know
TTITLE5=Too far from home
EXTD=
EXTT0=
EXTT1=
EXTT2=
EXTT3=
EXTT4=
EXTT5=
PLAYORDER=
